<svg width="44" height="56" viewBox="0 0 44 56" fill="none" xmlns="http://www.w3.org/2000/svg">
<g id="Closed Padlock">
<path fill-rule="evenodd" clip-rule="evenodd" d="M22 28.8C17.0499 28.8 13.037 32.7399 13.037 37.6C13.037 42.4601 17.0499 46.4 22 46.4C26.9501 46.4 30.963 42.4601 30.963 37.6C30.963 32.7399 26.9501 28.8 22 28.8ZM17.9259 37.6C17.9259 35.3909 19.75 33.6 22 33.6C24.25 33.6 26.0741 35.3909 26.0741 37.6C26.0741 39.8091 24.25 41.6 22 41.6C19.75 41.6 17.9259 39.8091 17.9259 37.6Z" fill="#6D6969"/>
<path fill-rule="evenodd" clip-rule="evenodd" d="M8.14815 13.6C8.14815 6.08893 14.3498 0 22 0C29.6502 0 35.8519 6.08893 35.8519 13.6V19.2C40.352 19.2 44 22.7817 44 27.2V48C44 52.4183 40.3519 56 35.8519 56H8.14815C3.64805 56 0 52.4183 0 48V27.2C0 22.7817 3.64805 19.2 8.14815 19.2V13.6ZM30.963 13.6V19.2H13.037V13.6C13.037 8.73989 17.0499 4.8 22 4.8C26.9501 4.8 30.963 8.73989 30.963 13.6ZM8.14815 24C6.34811 24 4.88889 25.4327 4.88889 27.2V48C4.88889 49.7673 6.34811 51.2 8.14815 51.2H35.8519C37.6519 51.2 39.1111 49.7673 39.1111 48V27.2C39.1111 25.4327 37.6519 24 35.8519 24H8.14815Z" fill="#6D6969"/>
</g>
</svg>
