<svg width="55" height="55" viewBox="0 0 55 55" fill="none" xmlns="http://www.w3.org/2000/svg">
<g id="Note">
<path d="M13.3571 15.7143C12.0553 15.7143 11 16.7696 11 18.0714C11 19.3732 12.0553 20.4286 13.3571 20.4286H41.6429C42.9447 20.4286 44 19.3732 44 18.0714C44 16.7696 42.9447 15.7143 41.6429 15.7143H13.3571Z" fill="#6D6969"/>
<path d="M13.3571 25.1429C12.0553 25.1429 11 26.1982 11 27.5C11 28.8018 12.0553 29.8571 13.3571 29.8571H41.6429C42.9447 29.8571 44 28.8018 44 27.5C44 26.1982 42.9447 25.1429 41.6429 25.1429H13.3571Z" fill="#6D6969"/>
<path d="M11 36.9286C11 35.6268 12.0553 34.5714 13.3571 34.5714H29.0714C30.3732 34.5714 31.4286 35.6268 31.4286 36.9286C31.4286 38.2304 30.3732 39.2857 29.0714 39.2857H13.3571C12.0553 39.2857 11 38.2304 11 36.9286Z" fill="#6D6969"/>
<path fill-rule="evenodd" clip-rule="evenodd" d="M43.2143 0H11.7857C5.27664 0 0 5.27664 0 11.7857V43.2143C0 49.7234 5.27664 55 11.7857 55H43.2143C49.7234 55 55 49.7234 55 43.2143V11.7857C55 5.27664 49.7234 0 43.2143 0ZM4.71429 11.7857C4.71429 7.88027 7.88027 4.71429 11.7857 4.71429H43.2143C47.1197 4.71429 50.2857 7.88027 50.2857 11.7857V43.2143C50.2857 47.1197 47.1197 50.2857 43.2143 50.2857H11.7857C7.88027 50.2857 4.71429 47.1197 4.71429 43.2143V11.7857Z" fill="#6D6969"/>
</g>
</svg>
